<svg width="512" height="512" viewBox="0 0 512 512" fill="none" xmlns="http://www.w3.org/2000/svg">
<path d="M27.5834 271.083C23.584 267.082 21.3373 261.657 21.3373 256C21.3373 250.343 23.584 244.918 27.5834 240.917L134.25 134.251C138.274 130.365 143.662 128.214 149.256 128.263C154.849 128.312 160.2 130.555 164.155 134.511C168.111 138.466 170.354 143.817 170.403 149.41C170.452 155.004 168.301 160.393 164.415 164.416L94.1647 234.667H469.333C474.991 234.667 480.417 236.914 484.418 240.915C488.418 244.916 490.666 250.342 490.666 256C490.666 261.658 488.418 267.084 484.418 271.085C480.417 275.086 474.991 277.333 469.333 277.333H94.1647L164.415 347.584C168.301 351.608 170.452 356.996 170.403 362.59C170.354 368.183 168.111 373.534 164.155 377.49C160.2 381.445 154.849 383.689 149.256 383.737C143.662 383.786 138.274 381.635 134.25 377.749L27.5834 271.083Z" fill="#21529A" style="fill:#21529A;fill:color(display-p3 0.1294 0.3216 0.6039);fill-opacity:1;"/>
</svg>
